<mxfile host="app.diagrams.net" modified="2023-06-10T02:45:41.054Z" agent="Mozilla/5.0 (Windows NT 10.0; Win64; x64) AppleWebKit/537.36 (KHTML, like Gecko) Chrome/113.0.0.0 Safari/537.36 OPR/99.0.0.0" version="21.3.8" etag="xLFp3FfUDf5xLmfS0-ib" type="github">
  <diagram name="PÃ¡gina-1" id="2icXgO03jCuS0-WeRVx6">
    <mxGraphModel>
      <root>
        <mxCell id="0" />
        <mxCell id="1" parent="0" />
      </root>
    </mxGraphModel>
  </diagram>
</mxfile>
